<svg id="visual" viewBox="0 0 4000 1080" width="4000" height="1080" xmlns="http://www.w3.org/2000/svg" xmlns:xlink="http://www.w3.org/1999/xlink" version="1.1"><path d="M0 66L51.3 66C102.7 66 205.3 66 307.8 69.5C410.3 73 512.7 80 615.2 78.2C717.7 76.3 820.3 65.7 923 62.2C1025.7 58.7 1128.3 62.3 1230.8 62.3C1333.3 62.3 1435.7 58.7 1538.2 56.8C1640.7 55 1743.3 55 1846 55C1948.7 55 2051.3 55 2154 56.8C2256.7 58.7 2359.3 62.3 2461.8 69.5C2564.3 76.7 2666.7 87.3 2769.2 85.5C2871.7 83.7 2974.3 69.3 3077 71.2C3179.7 73 3282.3 91 3384.8 92.8C3487.3 94.7 3589.7 80.3 3692.2 80.3C3794.7 80.3 3897.3 94.7 3948.7 101.8L4000 109L4000 0L3948.7 0C3897.3 0 3794.7 0 3692.2 0C3589.7 0 3487.3 0 3384.8 0C3282.3 0 3179.7 0 3077 0C2974.3 0 2871.7 0 2769.2 0C2666.7 0 2564.3 0 2461.8 0C2359.3 0 2256.7 0 2154 0C2051.3 0 1948.7 0 1846 0C1743.3 0 1640.7 0 1538.2 0C1435.7 0 1333.3 0 1230.8 0C1128.3 0 1025.7 0 923 0C820.3 0 717.7 0 615.2 0C512.7 0 410.3 0 307.8 0C205.3 0 102.7 0 51.3 0L0 0Z" fill="#3c49dd"></path><path d="M0 228L51.3 220.8C102.7 213.7 205.3 199.3 307.8 195.7C410.3 192 512.7 199 615.2 202.5C717.7 206 820.3 206 923 202.5C1025.7 199 1128.3 192 1230.8 192C1333.3 192 1435.7 199 1538.2 200.7C1640.7 202.3 1743.3 198.7 1846 196.8C1948.7 195 2051.3 195 2154 200.5C2256.7 206 2359.3 217 2461.8 226C2564.3 235 2666.7 242 2769.2 234.8C2871.7 227.7 2974.3 206.3 3077 206.3C3179.7 206.3 3282.3 227.7 3384.8 234.8C3487.3 242 3589.7 235 3692.2 227.8C3794.7 220.7 3897.3 213.3 3948.7 209.7L4000 206L4000 107L3948.7 99.8C3897.3 92.7 3794.7 78.3 3692.2 78.3C3589.7 78.3 3487.3 92.7 3384.8 90.8C3282.3 89 3179.7 71 3077 69.2C2974.3 67.3 2871.7 81.7 2769.2 83.5C2666.7 85.3 2564.3 74.7 2461.8 67.5C2359.3 60.3 2256.7 56.7 2154 54.8C2051.3 53 1948.7 53 1846 53C1743.3 53 1640.7 53 1538.2 54.8C1435.7 56.7 1333.3 60.3 1230.8 60.3C1128.3 60.3 1025.7 56.7 923 60.2C820.3 63.7 717.7 74.3 615.2 76.2C512.7 78 410.3 71 307.8 67.5C205.3 64 102.7 64 51.3 64L0 64Z" fill="#4858e2"></path><path d="M0 422L51.3 423.8C102.7 425.7 205.3 429.3 307.8 427.5C410.3 425.7 512.7 418.3 615.2 407.5C717.7 396.7 820.3 382.3 923 391.3C1025.7 400.3 1128.3 432.7 1230.8 438.2C1333.3 443.7 1435.7 422.3 1538.2 400.8C1640.7 379.3 1743.3 357.7 1846 361.2C1948.7 364.7 2051.3 393.3 2154 409.5C2256.7 425.7 2359.3 429.3 2461.8 429.3C2564.3 429.3 2666.7 425.7 2769.2 405.8C2871.7 386 2974.3 350 3077 353.7C3179.7 357.3 3282.3 400.7 3384.8 427.7C3487.3 454.7 3589.7 465.3 3692.2 456.3C3794.7 447.3 3897.3 418.7 3948.7 404.3L4000 390L4000 204L3948.7 207.7C3897.3 211.3 3794.7 218.7 3692.2 225.8C3589.7 233 3487.3 240 3384.8 232.8C3282.3 225.7 3179.7 204.3 3077 204.3C2974.3 204.3 2871.7 225.7 2769.2 232.8C2666.7 240 2564.3 233 2461.8 224C2359.3 215 2256.7 204 2154 198.5C2051.3 193 1948.7 193 1846 194.8C1743.3 196.7 1640.7 200.3 1538.2 198.7C1435.7 197 1333.3 190 1230.8 190C1128.3 190 1025.7 197 923 200.5C820.3 204 717.7 204 615.2 200.5C512.7 197 410.3 190 307.8 193.7C205.3 197.3 102.7 211.7 51.3 218.8L0 226Z" fill="#5567e7"></path><path d="M0 627L51.3 619.8C102.7 612.7 205.3 598.3 307.8 600.2C410.3 602 512.7 620 615.2 620C717.7 620 820.3 602 923 602C1025.7 602 1128.3 620 1230.8 620C1333.3 620 1435.7 602 1538.2 593C1640.7 584 1743.3 584 1846 585.8C1948.7 587.7 2051.3 591.3 2154 602.2C2256.7 613 2359.3 631 2461.8 643.7C2564.3 656.3 2666.7 663.7 2769.2 652.8C2871.7 642 2974.3 613 3077 609.3C3179.7 605.7 3282.3 627.3 3384.8 640C3487.3 652.7 3589.7 656.3 3692.2 652.7C3794.7 649 3897.3 638 3948.7 632.5L4000 627L4000 388L3948.7 402.3C3897.3 416.7 3794.7 445.3 3692.2 454.3C3589.7 463.3 3487.3 452.7 3384.8 425.7C3282.3 398.7 3179.7 355.3 3077 351.7C2974.3 348 2871.7 384 2769.2 403.8C2666.7 423.7 2564.3 427.3 2461.8 427.3C2359.3 427.3 2256.7 423.7 2154 407.5C2051.3 391.3 1948.7 362.7 1846 359.2C1743.3 355.7 1640.7 377.3 1538.2 398.8C1435.7 420.3 1333.3 441.7 1230.8 436.2C1128.3 430.7 1025.7 398.3 923 389.3C820.3 380.3 717.7 394.7 615.2 405.5C512.7 416.3 410.3 423.7 307.8 425.5C205.3 427.3 102.7 423.7 51.3 421.8L0 420Z" fill="#6276ec"></path><path d="M0 703L51.3 695.8C102.7 688.7 205.3 674.3 307.8 670.7C410.3 667 512.7 674 615.2 674C717.7 674 820.3 667 923 672.5C1025.7 678 1128.3 696 1230.8 696C1333.3 696 1435.7 678 1538.2 667.2C1640.7 656.3 1743.3 652.7 1846 654.5C1948.7 656.3 2051.3 663.7 2154 670.8C2256.7 678 2359.3 685 2461.8 695.7C2564.3 706.3 2666.7 720.7 2769.2 715.3C2871.7 710 2974.3 685 3077 683.3C3179.7 681.7 3282.3 703.3 3384.8 710.5C3487.3 717.7 3589.7 710.3 3692.2 703C3794.7 695.7 3897.3 688.3 3948.7 684.7L4000 681L4000 625L3948.7 630.5C3897.3 636 3794.7 647 3692.2 650.7C3589.7 654.3 3487.3 650.7 3384.8 638C3282.3 625.3 3179.7 603.7 3077 607.3C2974.3 611 2871.7 640 2769.2 650.8C2666.7 661.7 2564.3 654.3 2461.8 641.7C2359.3 629 2256.7 611 2154 600.2C2051.3 589.3 1948.7 585.7 1846 583.8C1743.3 582 1640.7 582 1538.2 591C1435.7 600 1333.3 618 1230.8 618C1128.3 618 1025.7 600 923 600C820.3 600 717.7 618 615.2 618C512.7 618 410.3 600 307.8 598.2C205.3 596.3 102.7 610.7 51.3 617.8L0 625Z" fill="#6f84ef"></path><path d="M0 746L51.3 738.8C102.7 731.7 205.3 717.3 307.8 713.8C410.3 710.3 512.7 717.7 615.2 717.7C717.7 717.7 820.3 710.3 923 715.7C1025.7 721 1128.3 739 1230.8 739C1333.3 739 1435.7 721 1538.2 710.2C1640.7 699.3 1743.3 695.7 1846 695.7C1948.7 695.7 2051.3 699.3 2154 704.8C2256.7 710.3 2359.3 717.7 2461.8 728.5C2564.3 739.3 2666.7 753.7 2769.2 750C2871.7 746.3 2974.3 724.7 3077 722.8C3179.7 721 3282.3 739 3384.8 744.3C3487.3 749.7 3589.7 742.3 3692.2 735.2C3794.7 728 3897.3 721 3948.7 717.5L4000 714L4000 679L3948.7 682.7C3897.3 686.3 3794.7 693.7 3692.2 701C3589.7 708.3 3487.3 715.7 3384.8 708.5C3282.3 701.3 3179.7 679.7 3077 681.3C2974.3 683 2871.7 708 2769.2 713.3C2666.7 718.7 2564.3 704.3 2461.8 693.7C2359.3 683 2256.7 676 2154 668.8C2051.3 661.7 1948.7 654.3 1846 652.5C1743.3 650.7 1640.7 654.3 1538.2 665.2C1435.7 676 1333.3 694 1230.8 694C1128.3 694 1025.7 676 923 670.5C820.3 665 717.7 672 615.2 672C512.7 672 410.3 665 307.8 668.7C205.3 672.3 102.7 686.7 51.3 693.8L0 701Z" fill="#7d92f3"></path><path d="M0 779L51.3 775.3C102.7 771.7 205.3 764.3 307.8 762.5C410.3 760.7 512.7 764.3 615.2 762.5C717.7 760.7 820.3 753.3 923 758.7C1025.7 764 1128.3 782 1230.8 783.8C1333.3 785.7 1435.7 771.3 1538.2 758.8C1640.7 746.3 1743.3 735.7 1846 735.7C1948.7 735.7 2051.3 746.3 2154 751.7C2256.7 757 2359.3 757 2461.8 764.2C2564.3 771.3 2666.7 785.7 2769.2 783.8C2871.7 782 2974.3 764 3077 765.8C3179.7 767.7 3282.3 789.3 3384.8 794.8C3487.3 800.3 3589.7 789.7 3692.2 780.7C3794.7 771.7 3897.3 764.3 3948.7 760.7L4000 757L4000 712L3948.7 715.5C3897.3 719 3794.7 726 3692.2 733.2C3589.7 740.3 3487.3 747.7 3384.8 742.3C3282.3 737 3179.7 719 3077 720.8C2974.3 722.7 2871.7 744.3 2769.2 748C2666.7 751.7 2564.3 737.3 2461.8 726.5C2359.3 715.7 2256.7 708.3 2154 702.8C2051.3 697.3 1948.7 693.7 1846 693.7C1743.3 693.7 1640.7 697.3 1538.2 708.2C1435.7 719 1333.3 737 1230.8 737C1128.3 737 1025.7 719 923 713.7C820.3 708.3 717.7 715.7 615.2 715.7C512.7 715.7 410.3 708.3 307.8 711.8C205.3 715.3 102.7 729.7 51.3 736.8L0 744Z" fill="#8ba0f5"></path><path d="M0 854L51.3 852.2C102.7 850.3 205.3 846.7 307.8 843.2C410.3 839.7 512.7 836.3 615.2 832.8C717.7 829.3 820.3 825.7 923 829.2C1025.7 832.7 1128.3 843.3 1230.8 841.5C1333.3 839.7 1435.7 825.3 1538.2 818.2C1640.7 811 1743.3 811 1846 814.7C1948.7 818.3 2051.3 825.7 2154 831C2256.7 836.3 2359.3 839.7 2461.8 848.7C2564.3 857.7 2666.7 872.3 2769.2 863.3C2871.7 854.3 2974.3 821.7 3077 818C3179.7 814.3 3282.3 839.7 3384.8 854.2C3487.3 868.7 3589.7 872.3 3692.2 863.3C3794.7 854.3 3897.3 832.7 3948.7 821.8L4000 811L4000 755L3948.7 758.7C3897.3 762.3 3794.7 769.7 3692.2 778.7C3589.7 787.7 3487.3 798.3 3384.8 792.8C3282.3 787.3 3179.7 765.7 3077 763.8C2974.3 762 2871.7 780 2769.2 781.8C2666.7 783.7 2564.3 769.3 2461.8 762.2C2359.3 755 2256.7 755 2154 749.7C2051.3 744.3 1948.7 733.7 1846 733.7C1743.3 733.7 1640.7 744.3 1538.2 756.8C1435.7 769.3 1333.3 783.7 1230.8 781.8C1128.3 780 1025.7 762 923 756.7C820.3 751.3 717.7 758.7 615.2 760.5C512.7 762.3 410.3 758.7 307.8 760.5C205.3 762.3 102.7 769.7 51.3 773.3L0 777Z" fill="#9aaef7"></path><path d="M0 897L51.3 893.5C102.7 890 205.3 883 307.8 883C410.3 883 512.7 890 615.2 890C717.7 890 820.3 883 923 883C1025.7 883 1128.3 890 1230.8 890C1333.3 890 1435.7 883 1538.2 879.5C1640.7 876 1743.3 876 1846 877.8C1948.7 879.7 2051.3 883.3 2154 886.8C2256.7 890.3 2359.3 893.7 2461.8 900.8C2564.3 908 2666.7 919 2769.2 911.8C2871.7 904.7 2974.3 879.3 3077 873.8C3179.7 868.3 3282.3 882.7 3384.8 891.7C3487.3 900.7 3589.7 904.3 3692.2 895.3C3794.7 886.3 3897.3 864.7 3948.7 853.8L4000 843L4000 809L3948.7 819.8C3897.3 830.7 3794.7 852.3 3692.2 861.3C3589.7 870.3 3487.3 866.7 3384.8 852.2C3282.3 837.7 3179.7 812.3 3077 816C2974.3 819.7 2871.7 852.3 2769.2 861.3C2666.7 870.3 2564.3 855.7 2461.8 846.7C2359.3 837.7 2256.7 834.3 2154 829C2051.3 823.7 1948.7 816.3 1846 812.7C1743.3 809 1640.7 809 1538.2 816.2C1435.7 823.3 1333.3 837.7 1230.8 839.5C1128.3 841.3 1025.7 830.7 923 827.2C820.3 823.7 717.7 827.3 615.2 830.8C512.7 834.3 410.3 837.7 307.8 841.2C205.3 844.7 102.7 848.3 51.3 850.2L0 852Z" fill="#aabcf9"></path><path d="M0 930L51.3 926.3C102.7 922.7 205.3 915.3 307.8 915.3C410.3 915.3 512.7 922.7 615.2 924.5C717.7 926.3 820.3 922.7 923 926.2C1025.7 929.7 1128.3 940.3 1230.8 938.5C1333.3 936.7 1435.7 922.3 1538.2 915.2C1640.7 908 1743.3 908 1846 913.5C1948.7 919 2051.3 930 2154 935.5C2256.7 941 2359.3 941 2461.8 944.5C2564.3 948 2666.7 955 2769.2 949.5C2871.7 944 2974.3 926 3077 924.2C3179.7 922.3 3282.3 936.7 3384.8 945.7C3487.3 954.7 3589.7 958.3 3692.2 949.3C3794.7 940.3 3897.3 918.7 3948.7 907.8L4000 897L4000 841L3948.7 851.8C3897.3 862.7 3794.7 884.3 3692.2 893.3C3589.7 902.3 3487.3 898.7 3384.8 889.7C3282.3 880.7 3179.7 866.3 3077 871.8C2974.3 877.3 2871.7 902.7 2769.2 909.8C2666.7 917 2564.3 906 2461.8 898.8C2359.3 891.7 2256.7 888.3 2154 884.8C2051.3 881.3 1948.7 877.7 1846 875.8C1743.3 874 1640.7 874 1538.2 877.5C1435.7 881 1333.3 888 1230.8 888C1128.3 888 1025.7 881 923 881C820.3 881 717.7 888 615.2 888C512.7 888 410.3 881 307.8 881C205.3 881 102.7 888 51.3 891.5L0 895Z" fill="#bacafa"></path><path d="M0 1027L51.3 1025.2C102.7 1023.3 205.3 1019.7 307.8 1017.8C410.3 1016 512.7 1016 615.2 1016C717.7 1016 820.3 1016 923 1019.7C1025.7 1023.3 1128.3 1030.7 1230.8 1032.5C1333.3 1034.3 1435.7 1030.7 1538.2 1027C1640.7 1023.3 1743.3 1019.7 1846 1017.8C1948.7 1016 2051.3 1016 2154 1019.7C2256.7 1023.3 2359.3 1030.7 2461.8 1034.3C2564.3 1038 2666.7 1038 2769.2 1036.2C2871.7 1034.3 2974.3 1030.7 3077 1030.7C3179.7 1030.7 3282.3 1034.3 3384.8 1036.2C3487.3 1038 3589.7 1038 3692.2 1036.2C3794.7 1034.3 3897.3 1030.7 3948.7 1028.8L4000 1027L4000 895L3948.7 905.8C3897.3 916.7 3794.7 938.3 3692.2 947.3C3589.7 956.3 3487.3 952.7 3384.8 943.7C3282.3 934.7 3179.7 920.3 3077 922.2C2974.3 924 2871.7 942 2769.2 947.5C2666.7 953 2564.3 946 2461.8 942.5C2359.3 939 2256.7 939 2154 933.5C2051.3 928 1948.7 917 1846 911.5C1743.3 906 1640.7 906 1538.2 913.2C1435.7 920.3 1333.3 934.7 1230.8 936.5C1128.3 938.3 1025.7 927.7 923 924.2C820.3 920.7 717.7 924.3 615.2 922.5C512.7 920.7 410.3 913.3 307.8 913.3C205.3 913.3 102.7 920.7 51.3 924.3L0 928Z" fill="#cad7fb"></path><path d="M0 1081L51.3 1081C102.7 1081 205.3 1081 307.8 1081C410.3 1081 512.7 1081 615.2 1081C717.7 1081 820.3 1081 923 1081C1025.7 1081 1128.3 1081 1230.8 1081C1333.3 1081 1435.7 1081 1538.2 1081C1640.7 1081 1743.3 1081 1846 1081C1948.7 1081 2051.3 1081 2154 1081C2256.7 1081 2359.3 1081 2461.8 1081C2564.3 1081 2666.7 1081 2769.2 1081C2871.7 1081 2974.3 1081 3077 1081C3179.7 1081 3282.3 1081 3384.8 1081C3487.3 1081 3589.7 1081 3692.2 1081C3794.7 1081 3897.3 1081 3948.7 1081L4000 1081L4000 1025L3948.7 1026.8C3897.3 1028.7 3794.7 1032.3 3692.2 1034.2C3589.7 1036 3487.3 1036 3384.8 1034.2C3282.3 1032.3 3179.7 1028.7 3077 1028.7C2974.3 1028.7 2871.7 1032.3 2769.2 1034.2C2666.7 1036 2564.3 1036 2461.8 1032.3C2359.3 1028.7 2256.7 1021.3 2154 1017.7C2051.3 1014 1948.7 1014 1846 1015.8C1743.3 1017.7 1640.7 1021.3 1538.2 1025C1435.7 1028.7 1333.3 1032.3 1230.8 1030.5C1128.3 1028.7 1025.7 1021.3 923 1017.7C820.3 1014 717.7 1014 615.2 1014C512.7 1014 410.3 1014 307.8 1015.8C205.3 1017.7 102.7 1021.3 51.3 1023.2L0 1025Z" fill="#dce5fc"></path></svg>